<svg id="visual" viewBox="0 0 900 600" width="900" height="600" xmlns="http://www.w3.org/2000/svg" xmlns:xlink="http://www.w3.org/1999/xlink" version="1.1"><rect x="0" y="0" width="900" height="600" fill="#f6f6f6"></rect><path d="M348 0L343.5 12.5C339 25 330 50 320.3 75C310.7 100 300.3 125 303.3 150C306.3 175 322.7 200 328.3 225C334 250 329 275 316.3 300C303.7 325 283.3 350 286.7 375C290 400 317 425 319 450C321 475 298 500 289.2 525C280.3 550 285.7 575 288.3 587.5L291 600L0 600L0 587.5C0 575 0 550 0 525C0 500 0 475 0 450C0 425 0 400 0 375C0 350 0 325 0 300C0 275 0 250 0 225C0 200 0 175 0 150C0 125 0 100 0 75C0 50 0 25 0 12.5L0 0Z" fill="#0066FF" stroke-linecap="round" stroke-linejoin="miter"></path></svg>